<?xml version="1.0" encoding="utf-8"?>
<!-- Generator: Adobe Illustrator 25.0.0, SVG Export Plug-In . SVG Version: 6.00 Build 0)  -->
<svg version="1.1" id="task-icon" xmlns="http://www.w3.org/2000/svg" xmlns:xlink="http://www.w3.org/1999/xlink" x="0px" y="0px"
	 viewBox="0 0 345 345" style="enable-background:new 0 0 345 345;" xml:space="preserve">
<style type="text/css">
	.st0{fill:#FFFFFF;}
	.st1{fill:#01A0C6;}
	.st2{fill:#0183A2;}
	.st3{fill:none;stroke:#168589;stroke-width:3;stroke-miterlimit:10;}
	.st4{display:none;fill:none;stroke:#E71408;stroke-width:0.25;stroke-miterlimit:10;}
</style>
<circle class="st0" cx="172.5" cy="172.5" r="157"/>
<circle class="st1" cx="172.5" cy="172.5" r="140.8"/>
<path class="st2" d="M283.2,259.6c-31.5,39.7-71.6,49.4-89.5,52.1c-3.2,0.5-5.8,0.8-7.6,1c-7.2,0.7-15.9,1-25.8,0.1
	c-11.2-1-20.9-3.2-28.5-5.5l-26.9-26.6l37.3-11.5l-31.8-31.1c-0.7-0.7,0.1-10.4,0.1-10.4l-5.6-3.9l5.3-106c0-0.1,0-0.2-0.1-0.3l-5-5
	c-0.1-0.1,0-0.1,0-0.2l11.3-8.1l28.5,26.5l-0.2-14.1l-35.6-34.5l0-10.6l-6.1-5.9l17.3-3.7l5.4,5.5l5.7-5.5l18.4,17.8l4.1-3l-9.7-7.1
	l-0.2-4.8l10.4-1l6.6,6.4l2.7-8.2l5.3,5.2l7-5.2l11.5,11.1l7.7-11.1l9.2,9l2.7-5.9l11.7-1l5.5,5.2l0.6-5.5L238,64l69.6,68.4
	c1.8,5.9,3.4,12.9,4.5,20.9c1.1,8.2,1.4,15.6,1.3,22c-0.2,10.5-1.7,25.7-7.6,42.9C299.3,237.1,290,251,283.2,259.6z"/>
<rect id="paper" x="144.5" y="98.8" class="st0" width="96.8" height="141.8"/>
<g id="Lines">
	<line class="st3" x1="154" y1="114.4" x2="230.9" y2="114.4"/>
	<line class="st3" x1="154" y1="128.3" x2="230.9" y2="128.3"/>
	<line class="st3" x1="154" y1="142.1" x2="230.9" y2="142.1"/>
	<line class="st3" x1="154" y1="156" x2="230.9" y2="156"/>
	<line class="st3" x1="154" y1="169.9" x2="230.9" y2="169.9"/>
	<line class="st3" x1="154" y1="183.7" x2="230.9" y2="183.7"/>
	<line class="st3" x1="154" y1="197.6" x2="230.9" y2="197.6"/>
	<line class="st3" x1="154" y1="211.4" x2="230.9" y2="211.4"/>
	<line class="st3" x1="154" y1="225.3" x2="230.9" y2="225.3"/>
	<polygon class="st1" points="154,126.8 157,129.8 154,129.8 	"/>
</g>
<g id="pen">
	<path class="st0" d="M114.6,103.5h-6.8c-1.7,0-3,1.3-3,3v6.2h12.8v-6.2C117.6,104.8,116.2,103.5,114.6,103.5z"/>
	<path class="st0" d="M109.9,237.8c0.4,0.9,2.1,1,2.6,0c0-0.1,5.1-11.3,5.1-11.3h-12.8"/>
	<rect x="104.8" y="116.2" class="st0" width="12.8" height="107.7"/>
</g>
<g>
	<path class="st0" d="M120.5,65.8h-6.2v16.5h-5V65.8h-6.1V62h17.3V65.8z"/>
	<path class="st0" d="M132.7,78.5h-6.8l-1.2,3.8h-5.3l7.6-20.3h4.7l7.6,20.3h-5.4L132.7,78.5z M127.1,74.7h4.5l-2.2-7.1L127.1,74.7z
		"/>
	<path class="st0" d="M151.5,76.9c0-0.7-0.3-1.3-0.8-1.7c-0.5-0.4-1.4-0.8-2.7-1.2c-1.3-0.4-2.4-0.8-3.2-1.2c-2.7-1.3-4-3.1-4-5.3
		c0-1.1,0.3-2.1,1-3c0.7-0.9,1.6-1.5,2.8-2c1.2-0.5,2.6-0.7,4.1-0.7c1.5,0,2.8,0.3,4,0.8c1.2,0.5,2.1,1.3,2.8,2.2c0.7,1,1,2.1,1,3.3
		h-5c0-0.8-0.3-1.5-0.8-1.9c-0.5-0.5-1.2-0.7-2.1-0.7c-0.9,0-1.6,0.2-2.1,0.6s-0.8,0.9-0.8,1.5c0,0.5,0.3,1,0.9,1.4
		c0.6,0.4,1.6,0.9,3,1.3c1.4,0.5,2.6,0.9,3.5,1.5c2.2,1.3,3.4,3,3.4,5.2c0,1.8-0.7,3.2-2,4.2c-1.4,1-3.2,1.5-5.6,1.5
		c-1.7,0-3.2-0.3-4.6-0.9c-1.4-0.6-2.4-1.4-3.1-2.4c-0.7-1-1-2.2-1-3.6h5c0,1.1,0.3,1.9,0.9,2.4s1.5,0.8,2.8,0.8
		c0.8,0,1.5-0.2,2-0.5C151.2,78,151.5,77.5,151.5,76.9z"/>
	<path class="st0" d="M166,74.7l-2,2.2v5.4h-5V62h5v9l1.7-2.6l4.5-6.4h6.2l-7,9l7,11.3h-5.9L166,74.7z"/>
	<path class="st0" d="M196.6,78.5h-6.8l-1.2,3.8h-5.3l7.6-20.3h4.7l7.6,20.3h-5.4L196.6,78.5z M191,74.7h4.5l-2.2-7.1L191,74.7z"/>
	<path class="st0" d="M209.7,75.4v6.9h-5V62h8.3c1.6,0,3,0.3,4.2,0.9s2.2,1.4,2.8,2.4c0.7,1.1,1,2.3,1,3.6c0,2-0.7,3.6-2.2,4.8
		c-1.4,1.2-3.4,1.8-6,1.8H209.7z M209.7,71.6h3.3c1,0,1.7-0.2,2.2-0.7c0.5-0.5,0.8-1.1,0.8-2c0-0.9-0.3-1.7-0.8-2.3
		c-0.5-0.6-1.2-0.9-2.1-0.9h-3.3V71.6z"/>
	<path class="st0" d="M228.7,75.4v6.9h-5V62h8.3c1.6,0,3,0.3,4.2,0.9s2.2,1.4,2.8,2.4c0.7,1.1,1,2.3,1,3.6c0,2-0.7,3.6-2.2,4.8
		c-1.4,1.2-3.4,1.8-6,1.8H228.7z M228.7,71.6h3.3c1,0,1.7-0.2,2.2-0.7c0.5-0.5,0.8-1.1,0.8-2c0-0.9-0.3-1.7-0.8-2.3
		c-0.5-0.6-1.2-0.9-2.1-0.9h-3.3V71.6z"/>
</g>
<line class="st4" x1="174.8" y1="350" x2="73.4" y2="249.6"/>
<rect x="104.8" y="269" class="st0" width="106.1" height="11.8"/>
<rect x="214.9" y="269" class="st0" width="26.5" height="11.8"/>
</svg>
